<svg width="113" height="77" viewBox="0 0 113 77" fill="none" xmlns="http://www.w3.org/2000/svg">
<path d="M112.531 58.4688C112.531 63.625 110.609 67.8906 106.766 71.2656C102.922 74.6406 98.5156 76.3281 93.5469 76.3281C86.2344 76.3281 80.2812 73.375 75.6875 67.4688C71.0938 61.4688 68.7969 54.625 68.7969 46.9375C68.7969 35.7812 72.3594 25.9844 79.4844 17.5469C85.9531 9.48438 94.6719 3.8125 105.641 0.53125V6.29688C97.7656 10.8906 92.2812 14.9219 89.1875 18.3906C84.4062 23.7344 82.0156 30.1562 82.0156 37.6562C82.0156 43 83.6562 45.6719 86.9375 45.6719C88.0625 45.6719 89.8438 45.2969 92.2812 44.5469C94.7188 43.7969 96.5938 43.4219 97.9062 43.4219C101.938 43.4219 105.359 44.9219 108.172 47.9219C111.078 50.9219 112.531 54.4375 112.531 58.4688ZM43.7656 59.0312C43.7656 64 41.8906 68.125 38.1406 71.4062C34.3906 74.6875 30.125 76.3281 25.3438 76.3281C18.0312 76.3281 11.9844 73.2344 7.20312 67.0469C2.42188 60.8594 0.03125 54.0625 0.03125 46.6562C0.03125 35.5 3.64062 25.7031 10.8594 17.2656C17.6094 9.57812 26.375 3.90625 37.1562 0.25V6.29688C21.5938 14.7344 13.8125 24.8125 13.8125 36.5312C13.8125 42.625 15.3594 45.6719 18.4531 45.6719C19.5781 45.6719 21.2656 45.2969 23.5156 44.5469C25.8594 43.7969 27.6875 43.4219 29 43.4219C33.0312 43.4219 36.5 44.9688 39.4062 48.0625C42.3125 51.1562 43.7656 54.8125 43.7656 59.0312Z" fill="black" fill-opacity="0.05"/>
<path d="M112.531 58.4688C112.531 63.625 110.609 67.8906 106.766 71.2656C102.922 74.6406 98.5156 76.3281 93.5469 76.3281C86.2344 76.3281 80.2812 73.375 75.6875 67.4688C71.0938 61.4688 68.7969 54.625 68.7969 46.9375C68.7969 35.7812 72.3594 25.9844 79.4844 17.5469C85.9531 9.48438 94.6719 3.8125 105.641 0.53125V6.29688C97.7656 10.8906 92.2812 14.9219 89.1875 18.3906C84.4062 23.7344 82.0156 30.1562 82.0156 37.6562C82.0156 43 83.6562 45.6719 86.9375 45.6719C88.0625 45.6719 89.8438 45.2969 92.2812 44.5469C94.7188 43.7969 96.5938 43.4219 97.9062 43.4219C101.938 43.4219 105.359 44.9219 108.172 47.9219C111.078 50.9219 112.531 54.4375 112.531 58.4688ZM43.7656 59.0312C43.7656 64 41.8906 68.125 38.1406 71.4062C34.3906 74.6875 30.125 76.3281 25.3438 76.3281C18.0312 76.3281 11.9844 73.2344 7.20312 67.0469C2.42188 60.8594 0.03125 54.0625 0.03125 46.6562C0.03125 35.5 3.64062 25.7031 10.8594 17.2656C17.6094 9.57812 26.375 3.90625 37.1562 0.25V6.29688C21.5938 14.7344 13.8125 24.8125 13.8125 36.5312C13.8125 42.625 15.3594 45.6719 18.4531 45.6719C19.5781 45.6719 21.2656 45.2969 23.5156 44.5469C25.8594 43.7969 27.6875 43.4219 29 43.4219C33.0312 43.4219 36.5 44.9688 39.4062 48.0625C42.3125 51.1562 43.7656 54.8125 43.7656 59.0312Z" fill="black" fill-opacity="0.25"/>
<path d="M112.531 58.4688C112.531 63.625 110.609 67.8906 106.766 71.2656C102.922 74.6406 98.5156 76.3281 93.5469 76.3281C86.2344 76.3281 80.2812 73.375 75.6875 67.4688C71.0938 61.4688 68.7969 54.625 68.7969 46.9375C68.7969 35.7812 72.3594 25.9844 79.4844 17.5469C85.9531 9.48438 94.6719 3.8125 105.641 0.53125V6.29688C97.7656 10.8906 92.2812 14.9219 89.1875 18.3906C84.4062 23.7344 82.0156 30.1562 82.0156 37.6562C82.0156 43 83.6562 45.6719 86.9375 45.6719C88.0625 45.6719 89.8438 45.2969 92.2812 44.5469C94.7188 43.7969 96.5938 43.4219 97.9062 43.4219C101.938 43.4219 105.359 44.9219 108.172 47.9219C111.078 50.9219 112.531 54.4375 112.531 58.4688ZM43.7656 59.0312C43.7656 64 41.8906 68.125 38.1406 71.4062C34.3906 74.6875 30.125 76.3281 25.3438 76.3281C18.0312 76.3281 11.9844 73.2344 7.20312 67.0469C2.42188 60.8594 0.03125 54.0625 0.03125 46.6562C0.03125 35.5 3.64062 25.7031 10.8594 17.2656C17.6094 9.57812 26.375 3.90625 37.1562 0.25V6.29688C21.5938 14.7344 13.8125 24.8125 13.8125 36.5312C13.8125 42.625 15.3594 45.6719 18.4531 45.6719C19.5781 45.6719 21.2656 45.2969 23.5156 44.5469C25.8594 43.7969 27.6875 43.4219 29 43.4219C33.0312 43.4219 36.5 44.9688 39.4062 48.0625C42.3125 51.1562 43.7656 54.8125 43.7656 59.0312Z" fill="black" fill-opacity="0.05"/>
<path d="M112.531 58.4688C112.531 63.625 110.609 67.8906 106.766 71.2656C102.922 74.6406 98.5156 76.3281 93.5469 76.3281C86.2344 76.3281 80.2812 73.375 75.6875 67.4688C71.0938 61.4688 68.7969 54.625 68.7969 46.9375C68.7969 35.7812 72.3594 25.9844 79.4844 17.5469C85.9531 9.48438 94.6719 3.8125 105.641 0.53125V6.29688C97.7656 10.8906 92.2812 14.9219 89.1875 18.3906C84.4062 23.7344 82.0156 30.1562 82.0156 37.6562C82.0156 43 83.6562 45.6719 86.9375 45.6719C88.0625 45.6719 89.8438 45.2969 92.2812 44.5469C94.7188 43.7969 96.5938 43.4219 97.9062 43.4219C101.938 43.4219 105.359 44.9219 108.172 47.9219C111.078 50.9219 112.531 54.4375 112.531 58.4688ZM43.7656 59.0312C43.7656 64 41.8906 68.125 38.1406 71.4062C34.3906 74.6875 30.125 76.3281 25.3438 76.3281C18.0312 76.3281 11.9844 73.2344 7.20312 67.0469C2.42188 60.8594 0.03125 54.0625 0.03125 46.6562C0.03125 35.5 3.64062 25.7031 10.8594 17.2656C17.6094 9.57812 26.375 3.90625 37.1562 0.25V6.29688C21.5938 14.7344 13.8125 24.8125 13.8125 36.5312C13.8125 42.625 15.3594 45.6719 18.4531 45.6719C19.5781 45.6719 21.2656 45.2969 23.5156 44.5469C25.8594 43.7969 27.6875 43.4219 29 43.4219C33.0312 43.4219 36.5 44.9688 39.4062 48.0625C42.3125 51.1562 43.7656 54.8125 43.7656 59.0312Z" fill="black" fill-opacity="0.05"/>
</svg>
